<svg width="253" height="32" viewBox="0 0 253 32" fill="none" xmlns="http://www.w3.org/2000/svg">
<path fill-rule="evenodd" clip-rule="evenodd" d="M6.59755 20.0958H13.9881C26.4177 20.0958 26.4464 0.792466 13.5704 0.792466H0.427246V30.7697H6.59755V20.0958ZM6.59755 14.6764V6.00377H12.7377C18.6008 6.00377 18.6338 14.6764 12.4046 14.6764H6.59755ZM26.1105 15.8019C26.1105 25.4737 31.7812 31.6109 40.7452 31.6109C49.7093 31.6109 55.4216 25.4751 55.4216 15.8019C55.4216 6.12866 49.7093 0 40.7452 0C31.7798 0 26.1105 6.1301 26.1105 15.8019ZM32.4057 15.8019C32.4057 9.13198 35.5325 5.37783 40.7452 5.37783C45.9982 5.37783 49.1666 9.13055 49.1666 15.8019C49.1666 22.4732 45.9982 26.2259 40.7452 26.2259C35.5325 26.2259 32.4057 22.4732 32.4057 15.8019ZM62.1791 31.4186H64.6368V12.1669H68.4872V10.1599H64.6368V6.51485C64.6368 4.63132 65.2513 3.85177 67.1363 3.85177C67.5052 3.85177 67.9546 3.97523 68.4872 4.01543V1.80457C68.0688 1.72488 67.644 1.68355 67.2181 1.68111C63.7769 1.68111 62.1791 3.03346 62.1791 6.26935V10.1599H59.0666V12.1669H62.1791V31.4186ZM73.3611 19.2545C73.6066 14.5845 76.3099 11.7994 80.12 11.7994C83.9287 11.7994 86.4683 14.5443 86.6736 19.2545H73.3611ZM73.3611 21.2615H89.2132V20.4418C89.2132 13.5192 85.8137 9.62871 80.1602 9.62871C74.3847 9.62871 70.8215 13.726 70.8215 20.894C70.8215 27.9386 74.3445 32 80.0784 32C84.9538 32 88.3935 29.1675 88.9261 24.8664H86.4683C85.9773 27.9788 83.5598 29.8222 80.242 29.8222C76.1462 29.8222 73.3611 26.7097 73.3611 21.3836V21.2615ZM93.5962 31.4186H96.054V19.6221C96.054 14.7065 98.2663 12.1669 102.484 12.1669H102.811V9.62728H102.526C99.4535 9.62728 97.2412 10.938 95.9721 13.8882V10.1599H93.5962V31.4186ZM106.172 31.4186H108.63V19.6221C108.63 14.7065 110.842 12.1669 115.06 12.1669H115.389V9.62728H115.102C112.03 9.62728 109.819 10.938 108.548 13.8882V10.1599H106.172V31.4186ZM118.994 31.4186H121.452V10.1599H118.994V31.4186ZM118.994 5.65491H121.452V1.96823H118.994V5.65491ZM128.66 19.2545C128.907 14.5845 131.61 11.7994 135.42 11.7994C139.227 11.7994 141.768 14.5443 141.972 19.2545H128.66ZM128.66 21.2615H144.513V20.4418C144.513 13.5192 141.112 9.62871 135.459 9.62871C129.683 9.62871 126.12 13.726 126.12 20.894C126.12 27.9386 129.645 32 135.379 32C140.252 32 143.695 29.1675 144.228 24.8664H141.768C141.277 27.9788 138.861 29.8222 135.541 29.8222C131.446 29.8222 128.66 26.7097 128.66 21.3836V21.2615ZM147.996 24.7831C148.117 29.1675 151.314 31.9986 156.268 31.9986C161.267 31.9986 164.38 29.4116 164.38 25.8886C164.38 22.4488 162.414 21.0146 157.908 19.9078C153.483 18.844 150.985 18.5568 150.985 15.4444C150.985 13.3139 152.747 11.7979 155.738 11.7979C159.095 11.7979 161.102 13.5178 161.269 16.3862H163.807C163.521 12.1669 160.571 9.62728 155.779 9.62728C151.396 9.62728 148.447 12.1669 148.447 15.7703C148.447 19.457 151.03 20.6457 156.107 21.8746C159.876 22.7761 161.841 23.2255 161.841 25.8484C161.841 28.1827 159.794 29.8222 156.149 29.8222C152.872 29.8222 150.577 27.7333 150.536 24.7831H147.996ZM170.36 31.4186H173.064V27.7735H170.36V31.4186ZM194.528 24.0883C193.995 27.6931 191.62 29.782 188.341 29.782C184.205 29.782 181.379 26.5044 181.379 20.7289C181.379 15.0353 184.205 11.7994 188.298 11.7994C191.495 11.7994 193.912 13.8064 194.321 16.9202H196.695C196.451 12.5775 193.092 9.62871 188.297 9.62871C182.524 9.62871 178.836 13.8064 178.836 20.9342C178.836 27.8554 182.481 31.9598 188.135 31.9598C193.174 31.9598 196.533 28.9637 196.984 24.0897L194.528 24.0883ZM199.976 20.8108C199.976 27.9386 203.539 31.9598 209.725 31.9598C215.911 31.9598 219.513 27.9386 219.513 20.8108C219.513 13.6843 215.91 9.62871 209.725 9.62871C203.54 9.62871 199.976 13.6829 199.976 20.8108ZM202.515 20.8108C202.515 14.9951 205.219 11.7994 209.724 11.7994C214.269 11.7994 216.975 14.9951 216.975 20.8108C216.975 26.6279 214.269 29.782 209.724 29.782C205.219 29.782 202.515 26.6265 202.515 20.8108ZM223.899 31.4186H226.355V18.2711C226.355 14.4194 228.896 11.7994 232.622 11.7994C235.652 11.7994 237.085 13.5192 237.085 17.0423V31.42H239.544V18.1089C239.544 14.3806 241.962 11.8008 245.772 11.8008C249.047 11.8008 250.276 13.357 250.276 16.7982V31.4214H252.735V16.5915C252.735 11.9214 250.484 9.62728 245.854 9.62728C242.823 9.62728 240.444 11.0615 239.012 13.8049C238.317 11.1433 236.146 9.62728 232.949 9.62728C229.999 9.62728 227.624 11.0615 226.192 13.6829V10.1599H223.897V31.4186H223.899Z" fill="white"/>
</svg>
