<svg xmlns="http://www.w3.org/2000/svg" width="142" height="34" fill="none" viewBox="0 0 142 34"><path fill="#ED303B" d="M14.082 11.641h7.671v7.413a2.69 2.69 0 0 1-.829 1.934c-.53.513-1.25.8-2.001.8h-7.67v-7.412c0-.725.299-1.42.829-1.933a2.881 2.881 0 0 1 2-.802Z"/><path fill="#ED303B" d="M11.073 7.47h13.28V4.885c0-1.091-.449-2.138-1.247-2.91A4.336 4.336 0 0 0 20.094.772H4.26c-.56 0-1.114.106-1.63.312-.517.207-.987.51-1.382.892-.396.382-.71.836-.924 1.335A3.994 3.994 0 0 0 0 4.885v15.301c0 1.092.449 2.139 1.248 2.91a4.337 4.337 0 0 0 3.012 1.206h2.674V11.47c0-1.06.436-2.078 1.212-2.828a4.214 4.214 0 0 1 2.927-1.172ZM26.07 9.125v12.83c0 1.061-.437 2.08-1.214 2.83a4.216 4.216 0 0 1-2.928 1.172H8.648v2.583c0 1.092.45 2.139 1.249 2.91a4.337 4.337 0 0 0 3.011 1.206h15.835a4.39 4.39 0 0 0 1.63-.313c.517-.207.987-.51 1.382-.892.396-.382.71-.836.924-1.335.214-.5.324-1.035.324-1.576v-15.3c0-.54-.11-1.075-.324-1.575a4.108 4.108 0 0 0-.923-1.335 4.272 4.272 0 0 0-1.383-.893 4.387 4.387 0 0 0-1.63-.312H26.07Z"/><path fill="#000" d="M56.7 34c-2.744 0-5.233-.629-7.466-1.887-2.698-1.514-4.48-3.695-5.348-6.541l3.488-.989c.606 2.008 1.87 3.537 3.792 4.586 1.615.883 3.467 1.325 5.556 1.325.326 0 .605-.007.838-.022.28-.022.56-.06.837-.113a9.609 9.609 0 0 0 2.49-.695c2.17-.96 3.349-2.6 3.534-4.922a4.17 4.17 0 0 0-.212-1.73 4.275 4.275 0 0 0-.904-1.507c-1.302-1.468-3.395-2.291-6.28-2.47-4.837-.315-8.342-1.41-10.513-3.282-1.644-1.423-2.466-3.251-2.465-5.484 0-3.011 1.235-5.423 3.704-7.237C49.97 1.381 52.66.555 55.823.555c3.737 0 6.861 1.28 9.373 3.843.794.828 1.488 1.74 2.07 2.72.19.314.422.77.698 1.37l-3.395 1.238a18.297 18.297 0 0 0-.723-1.336 7.74 7.74 0 0 0-1.302-1.562c-1.814-1.844-4.054-2.765-6.72-2.765-.832.004-1.66.102-2.467.292a9.343 9.343 0 0 0-2.651.964c-2.016 1.123-3.025 2.77-3.025 4.943 0 3.1 3.203 4.854 9.607 5.26 3.876.254 6.8 1.482 8.768 3.685 1.505 1.677 2.17 3.61 1.995 5.799-.248 2.92-1.543 5.198-3.884 6.83C62.104 33.28 59.633 34 56.755 34H56.7ZM84.935 10.134c3.365 0 6.242 1.154 8.63 3.462 2.387 2.308 3.581 5.087 3.582 8.336l-.024.72H76.306c.19 2.143 1.113 3.956 2.768 5.439a8.452 8.452 0 0 0 5.861 2.224 8.64 8.64 0 0 0 4.536-1.258 8.14 8.14 0 0 0 3.116-3.236l3.276 1.376a11.908 11.908 0 0 1-4.416 4.742 12.238 12.238 0 0 1-6.512 1.82c-3.365 0-6.24-1.153-8.629-3.46-2.403-2.308-3.604-5.095-3.605-8.361 0-3.25 1.202-6.03 3.605-8.337 2.388-2.31 5.264-3.466 8.63-3.467Zm8.165 9.085a8.298 8.298 0 0 0-2.132-3.267 8.684 8.684 0 0 0-3.428-1.987 8.91 8.91 0 0 0-3.987-.279 8.785 8.785 0 0 0-3.688 1.489 8.315 8.315 0 0 0-3.117 4.044H93.1ZM102.148 6.292h3.562v4.09h4.183v3.441h-4.187v12.113a3.906 3.906 0 0 0 .306 1.559c.208.495.516.945.906 1.323.389.38.853.68 1.364.884.51.204 1.058.308 1.611.306v3.442a7.97 7.97 0 0 1-2.97-.571 7.766 7.766 0 0 1-2.517-1.628 7.48 7.48 0 0 1-1.677-2.436 7.248 7.248 0 0 1-.582-2.872l.001-19.651ZM114.007 6.292h3.561v4.09h4.187v3.441h-4.187v12.113a3.922 3.922 0 0 0 .307 1.558c.208.495.515.945.904 1.323.39.38.853.68 1.363.884a4.302 4.302 0 0 0 1.611.307v3.442a7.975 7.975 0 0 1-2.97-.572 7.753 7.753 0 0 1-2.516-1.628 7.468 7.468 0 0 1-1.678-2.435 7.265 7.265 0 0 1-.582-2.872V6.292ZM126.22 0h3.581v33.44h-3.581V0ZM138.758 30.652c.006.364-.065.725-.209 1.061-.144.337-.357.641-.628.895a2.81 2.81 0 0 1-.924.615 2.888 2.888 0 0 1-3.123-.615 2.668 2.668 0 0 1-.628-.894 2.606 2.606 0 0 1-.21-1.062c0-.733.302-1.436.838-1.955a2.913 2.913 0 0 1 2.023-.81c.759 0 1.486.292 2.023.81a2.72 2.72 0 0 1 .838 1.955ZM135.383 1.147v3.46h-.986v-3.46h-1.367V.266h3.724v.88h-1.371ZM141.024 4.607V1.773l-1.263 1.854h-.028l-1.25-1.836v2.816h-.976V.266h1.065l1.181 1.836 1.181-1.836H142v4.341h-.976Z"/></svg>