<svg width="158" height="36" viewBox="0 0 158 36" fill="none" xmlns="http://www.w3.org/2000/svg">
<path fill-rule="evenodd" clip-rule="evenodd" d="M74.6826 0.555423V29.1467C74.6826 36.5259 66.0349 37.6788 62.4614 31.7987L54.9681 19.4641V29.1475C55.083 36.5267 46.4368 37.6795 42.8625 31.7995L35.3692 19.4649V28.226C35.3692 32.7218 32.7172 35.1432 28.6826 35.1432H19.1133C-5.21275 35.1432 -5.44254 0.556985 18.7678 0.556985H22.9182V10.3568H18.3067C8.27628 10.3568 7.23908 25.3442 18.9984 25.3442H24.4173C24.9934 25.3442 25.4553 24.7673 25.4553 24.1913V6.89662C25.4553 0.440525 33.756 -2.67263 38.1369 4.82145C42.6335 12.4304 45.1698 16.927 45.1698 16.927V6.89662C45.1698 0.440525 53.3556 -2.67263 57.7358 4.82145C62.2324 12.4304 64.7687 16.927 64.7687 16.927V0.555423H74.6826Z" fill="#C82636"/>
<path fill-rule="evenodd" clip-rule="evenodd" d="M69.1482 0.555054V28.5711C69.1482 29.1463 68.9176 29.6075 68.5713 29.7239C68.2259 29.7239 67.8796 29.6083 67.649 29.2628C67.5341 29.0322 56.1203 10.7003 53.2377 6.08963C52.6617 5.28222 51.7394 4.93676 50.932 5.16733C50.0097 5.39791 49.5485 6.32098 49.5485 7.35818V28.5718C49.5485 29.1471 49.3179 29.6083 48.9717 29.7247C48.6262 29.7247 48.28 29.609 48.0494 29.2636C47.9345 29.033 36.4057 10.7011 33.6381 6.09041C33.0612 5.28301 32.1389 4.93754 31.3323 5.16811C30.41 5.39869 29.834 6.32176 29.834 7.35896V28.457C29.834 29.0338 29.3728 29.6098 28.6811 29.6098H18.4217C10.0061 29.6098 6.20121 23.5008 6.20121 17.8505C6.20121 11.9712 10.2359 6.09119 18.0754 6.09119H22.9175V4.93832H18.0754C9.54416 4.93832 5.04834 11.5101 5.04834 17.8505C5.04834 24.076 9.31437 30.7627 18.4217 30.7627H28.6827C29.2587 30.7627 29.8355 30.5337 30.2967 30.071C30.7578 29.6098 30.9884 29.0346 30.9884 28.4577V7.3574C30.9884 6.78135 31.219 6.3202 31.5645 6.20453C32.0256 6.08963 32.3719 6.32021 32.7173 6.66568C35.4842 11.2772 47.013 29.6075 47.1286 29.8381C47.5898 30.6455 48.5121 30.9925 49.3187 30.7604C49.8955 30.5313 50.5873 29.8381 50.5873 28.5711V7.3574C50.5873 6.78135 50.8178 6.3202 51.279 6.20453C51.6253 6.08963 51.9707 6.32021 52.317 6.66568C55.0839 11.2772 66.6126 29.6075 66.7283 29.8381C67.3043 30.6455 68.1117 30.9925 68.9184 30.7604C69.6101 30.5313 70.3026 29.8381 70.3026 28.5711V0.555054H69.1482Z" fill="white"/>
<path fill-rule="evenodd" clip-rule="evenodd" d="M105.841 21.8648C105.467 17.107 101.459 14.8533 97.0774 14.8533C91.0676 14.8533 87.6874 19.1111 87.6874 24.8706C87.6874 30.3796 91.4445 34.3853 97.0774 34.3853C101.835 34.3853 105.34 31.6317 105.967 26.7491H101.085C100.709 29.0019 99.3311 30.5044 96.9518 30.5044C93.8229 30.5044 92.8204 27.3738 92.8204 24.7449C92.8204 21.9913 93.8238 18.7351 97.0783 18.7351C99.2072 18.7351 100.585 19.8623 100.835 21.8656L105.841 21.8648ZM107.846 24.6202C107.846 30.5044 111.601 34.3853 117.486 34.3853C123.246 34.3853 127.001 30.5044 127.001 24.6202C127.001 18.7342 123.246 14.8533 117.486 14.8533C111.601 14.8541 107.846 18.7351 107.846 24.6202ZM112.979 24.6202C112.979 21.6144 113.981 18.7342 117.487 18.7342C120.867 18.7342 121.995 21.6144 121.995 24.6202C121.995 27.6242 120.868 30.5044 117.487 30.5044C113.98 30.5044 112.979 27.6242 112.979 24.6202ZM129.38 33.8845H134.265V23.116C134.265 19.4855 136.768 18.8598 137.77 18.8598C140.9 18.8598 140.775 21.3631 140.775 23.492V33.8837H145.908V23.6194C145.908 21.24 146.409 18.8615 149.289 18.8615C152.168 18.8615 152.419 20.864 152.419 23.3698V33.8862H157.427V21.4913C157.427 16.7335 154.672 14.855 150.666 14.855C148.161 14.855 146.158 16.3574 145.157 17.9855C144.156 15.7327 142.027 14.855 139.772 14.855C137.394 14.855 135.39 15.9822 134.138 17.8608H134.014V15.3558H129.38V33.8845ZM80.5495 31.2556C80.5495 29.6292 81.9271 28.2515 83.68 28.2515C85.4337 28.2515 86.8106 29.6292 86.8106 31.2556C86.8149 31.6679 86.7369 32.077 86.5811 32.4587C86.4253 32.8405 86.1948 33.1873 85.9033 33.4789C85.6117 33.7704 85.2649 34.0009 84.8831 34.1567C84.5014 34.3125 84.0923 34.3905 83.68 34.3862C83.2678 34.3901 82.8589 34.3119 82.4773 34.156C82.0957 34 81.749 33.7696 81.4575 33.4781C81.166 33.1866 80.9356 32.8399 80.7797 32.4583C80.6238 32.0767 80.5455 31.6678 80.5495 31.2556Z" fill="white"/>
</svg>
