<svg width="160" height="38" viewBox="0 0 160 38" fill="none" xmlns="http://www.w3.org/2000/svg">
<g clip-path="url(#clip0_239_1042)">
<path d="M122.133 15.0624C121.495 14.6582 120.748 14.4619 119.993 14.5005H117.313V18.656H119.993C120.905 18.656 121.619 18.4686 122.133 18.0941C122.373 17.9187 122.567 17.6894 122.701 17.4248C122.835 17.1603 122.905 16.8678 122.905 16.5712C122.905 16.2746 122.835 15.9822 122.701 15.7176C122.567 15.453 122.373 15.2237 122.133 15.0484V15.0624Z" fill="white"/>
<path d="M0.447266 0V38H159.684V0H0.447266ZM3.4751 35.0949V3.0626H97.3209V35.0923L3.4751 35.0949ZM104.348 26.4104C104.349 26.1437 104.412 25.8808 104.531 25.6421C104.649 25.4034 104.822 25.1952 105.034 25.0336C105.498 24.6537 106.083 24.4543 106.683 24.4719C107.273 24.4538 107.85 24.6537 108.303 25.0336C108.511 25.1979 108.679 25.4071 108.795 25.6455C108.911 25.8839 108.971 26.1454 108.972 26.4104C108.974 26.6798 108.914 26.9462 108.799 27.1895C108.683 27.4328 108.514 27.6467 108.303 27.8151C107.853 28.2019 107.276 28.4081 106.683 28.3939C106.081 28.4073 105.495 28.2016 105.034 27.8151C104.819 27.6494 104.646 27.4365 104.527 27.1929C104.408 26.9493 104.347 26.6815 104.348 26.4104ZM112.609 28.0793V10.581H120.1C122.506 10.581 124.395 11.1138 125.768 12.1796C127.14 13.2454 127.823 14.7113 127.815 16.5769C127.815 18.4498 127.129 19.9175 125.757 20.9796C124.384 22.0415 122.498 22.5753 120.1 22.5808H117.325V28.0681L112.609 28.0793ZM149.847 28.0793H145.224V23.7976C145.224 22.5858 145.24 21.4616 145.272 20.426C145.303 19.3808 145.328 18.6505 145.348 18.2374L145.376 17.6164H145.348C145.348 17.6164 145.201 17.8129 144.935 18.2064C144.668 18.6 144.373 19.0325 144.092 19.5044C143.811 19.9763 143.62 20.2293 143.592 20.2602L141.295 23.7609H138.845L136.548 20.2602C136.52 20.2264 136.354 19.9791 136.048 19.5044C135.742 19.0297 135.458 18.5997 135.205 18.2064C134.952 17.8132 134.804 17.6164 134.792 17.6164H134.764L134.792 18.2374C134.811 18.6512 134.836 19.381 134.868 20.426C134.899 21.4713 134.916 22.6006 134.916 23.7976V28.0681H130.279V10.581H134.705L138.385 15.8856C138.738 16.395 139.085 16.9091 139.424 17.428C139.708 17.8634 139.882 18.1333 139.944 18.24C139.972 18.2978 140.009 18.3509 140.053 18.3972H140.095C140.14 18.3506 140.177 18.2975 140.205 18.24C140.269 18.1333 140.441 17.8634 140.724 17.428C141.065 16.9096 141.411 16.3954 141.764 15.8856L145.443 10.581H149.861L149.847 28.0793Z" fill="white"/>
<path d="M11.0166 19.3414C11.0101 18.0944 11.2827 16.8617 11.8144 15.7338C12.3257 14.6297 13.0613 13.6441 13.9742 12.8399C14.9224 12.0169 16.016 11.3784 17.1988 10.9573C18.4658 10.4999 19.8035 10.2698 21.1505 10.2775C22.9596 10.2559 24.7455 10.6856 26.3468 11.5278C27.85 12.3029 29.1178 13.4672 30.0178 14.8994L25.2431 16.0232C24.745 15.4946 24.129 15.0912 23.4454 14.846C22.7116 14.5579 21.9305 14.4093 21.1422 14.4077C19.5431 14.4077 18.2697 14.863 17.3224 15.7734C16.8468 16.2341 16.4738 16.7901 16.2279 17.405C15.982 18.0198 15.8688 18.6797 15.8955 19.3414C15.8955 20.8229 16.3833 22.0079 17.3588 22.8954C18.3345 23.7835 19.5946 24.2262 21.1393 24.2244C22.0443 24.2314 22.9399 24.0396 23.7628 23.6624C24.5039 23.3523 25.1459 22.8451 25.6193 22.1958L30.3605 23.2887C29.5236 24.8725 28.2364 26.1727 26.6613 27.0254C24.9785 27.967 23.0786 28.4513 21.1505 28.4301C19.3823 28.4445 17.6356 28.0411 16.0526 27.2529C14.5556 26.5207 13.285 25.3963 12.3759 23.9992C11.471 22.6158 10.9979 20.9945 11.0166 19.3414ZM29.939 28.0511L37.7447 10.6315H42.1853L50.0048 28.0511H44.9491L43.8256 25.3313H36.1182L34.9947 28.0511H29.939ZM37.607 21.6623H42.3201L40.9411 18.2626C40.7948 17.9069 40.6562 17.5481 40.5253 17.1864C40.3946 16.8317 40.2673 16.4758 40.1433 16.1188C40.1015 15.9755 40.049 15.8356 39.9862 15.7002H39.9581C39.8951 15.8355 39.8426 15.9755 39.8009 16.1188C39.6783 16.4753 39.5537 16.8312 39.4273 17.1864C39.3006 17.5485 39.1648 17.9073 39.0201 18.2626L37.607 21.6623ZM51.6198 28.0511V10.6315H58.8944C61.3285 10.6315 63.249 11.1765 64.6553 12.2668C65.3313 12.7669 65.8764 13.423 66.2442 14.1794C66.6119 14.9357 66.7915 15.7697 66.7675 16.6104C66.7938 17.685 66.477 18.74 65.8631 19.6223C65.1986 20.5179 64.2939 21.2067 63.2539 21.6089L67.5762 28.0511H62.3266L58.7035 22.3418H56.3076V28.0511H51.6198ZM56.3048 18.6725H59.5322C60.3036 18.6725 60.887 18.4638 61.282 18.0461C61.6616 17.663 61.8746 17.1455 61.8746 16.6061C61.8746 16.0667 61.6616 15.5492 61.282 15.1662C60.8867 14.7487 60.3036 14.5397 59.5322 14.5397H56.3048V18.6725ZM70.5817 28.0511V10.6315H79.1089C80.863 10.61 82.5996 10.9835 84.1898 11.7244C85.6679 12.411 86.9304 13.4884 87.8411 14.8403C90.1844 18.3303 89.4951 23.0295 86.2487 25.6993C85.2917 26.4668 84.2028 27.0533 83.0354 27.4301C81.7669 27.8486 80.4389 28.0584 79.1031 28.0511H70.5817ZM75.2666 24.1403H79.1063C80.456 24.1793 81.7735 23.7237 82.8108 22.859C83.3083 22.4378 83.703 21.9085 83.9649 21.3116C84.2268 20.7146 84.3489 20.0657 84.322 19.4143C84.3448 18.7507 84.2198 18.0903 83.956 17.4809C83.6923 16.8716 83.2964 16.3285 82.7971 15.891C81.7806 14.9923 80.4625 14.5106 79.1063 14.5423H75.2666V24.1403Z" fill="white"/>
</g>
<defs>
<clipPath id="clip0_239_1042">
<rect width="159.347" height="38" fill="white" transform="translate(0.39209)"/>
</clipPath>
</defs>
</svg>
