<svg width="172" height="38" viewBox="0 0 172 38" fill="none" xmlns="http://www.w3.org/2000/svg">
<path d="M55.521 28.4529C55.9191 27.6919 56.2003 26.7687 56.3199 25.7126H65.6404C65.3745 28.5467 64.124 31.1991 62.105 33.2112C62.0966 33.2169 62.105 33.2279 62.105 33.2279C60.9658 34.3638 59.6133 35.2646 58.1249 35.8791C56.6364 36.4935 55.0412 36.8095 53.4302 36.809C51.8192 36.8098 50.2239 36.494 48.7354 35.8795C47.2469 35.2651 45.8945 34.364 44.7555 33.2279C44.7555 33.2279 44.7608 33.2169 44.7555 33.2112C43.6157 32.0757 42.7117 30.7271 42.0955 29.2426C41.4793 27.7581 41.1629 26.167 41.1644 24.5603C41.1628 22.9542 41.4792 21.3635 42.0955 19.8795C42.7117 18.3955 43.6156 17.0474 44.7555 15.9125C45.8946 14.7765 47.247 13.8753 48.7355 13.2605C50.2239 12.6457 51.8192 12.3292 53.4302 12.3292C55.0413 12.3292 56.6366 12.6457 58.125 13.2605C59.6134 13.8753 60.9658 14.7765 62.105 15.9125C64.1245 17.925 65.375 20.578 65.6404 23.4126H56.3195C56.1995 22.355 55.9187 21.431 55.5206 20.6731C54.9663 19.663 54.2596 19.0661 53.4298 19.0604C52.6001 19.0665 51.8903 19.663 51.3391 20.6731C50.7992 21.6936 50.4762 23.0149 50.4762 24.5603C50.4762 26.1089 50.7992 27.4294 51.3391 28.4529C51.8903 29.4604 52.6001 30.0599 53.4298 30.0629C54.2592 30.0603 54.9671 29.4604 55.521 28.4529ZM16.5516 12.3174C18.1625 12.3168 19.7577 12.6329 21.2461 13.2476C22.7344 13.8623 24.0865 14.7636 25.2252 15.9C26.3648 17.035 27.2687 18.3831 27.8851 19.8671C28.5014 21.351 28.8181 22.9416 28.817 24.5478V35.7874H19.506V24.7404C19.5026 23.4001 19.1811 22.2573 18.6401 21.371C18.0915 20.4965 17.3832 19.9794 16.5516 19.9756C15.7214 19.9794 15.0124 20.4961 14.4638 21.371C13.9213 22.2573 13.6006 23.4001 13.5971 24.7408V30.8315L13.5987 35.7874H4.28613V24.5478C4.28569 22.9416 4.60271 21.3511 5.21909 19.8672C5.83547 18.3833 6.7391 17.035 7.87833 15.8996C9.01705 14.7634 10.3692 13.8622 11.8574 13.2475C13.3456 12.6328 14.9407 12.317 16.5516 12.3174ZM84.9303 25.5622L89.7244 32.9058C90.838 34.5766 90.2083 35.9397 88.8475 35.9397C87.1376 35.9397 81.1556 35.9424 81.1556 35.9424L76.225 28.3777V35.7874H66.9129V16.9599C66.9129 14.3967 68.998 12.3174 71.5676 12.3174C74.14 12.3174 76.225 14.397 76.225 16.9599V21.9694L80.4397 14.4556C81.7453 12.2464 84.6019 11.512 86.815 12.8147C89.0311 14.1167 89.7656 16.9633 88.46 19.171L84.9303 25.5622ZM37.6952 10.4509C35.7858 12.3543 35.6494 12.8607 37.467 14.6694L38.506 15.7055C38.9436 16.1407 39.2907 16.6579 39.5272 17.2273C39.7637 17.7968 39.8849 18.4072 39.8839 19.0236V35.7874H30.4739V19.0239C30.4727 18.4075 30.5938 17.797 30.8302 17.2274C31.0666 16.6579 31.4137 16.1406 31.8515 15.7055L32.8908 14.6675C34.7061 12.8588 34.5694 12.355 32.663 10.4509L31.5181 9.31084C31.0369 8.83202 30.6552 8.26317 30.395 7.63692C30.1347 7.01068 30.001 6.33935 30.0015 5.66145C30.0015 4.23489 30.5825 2.94549 31.5178 2.01129C31.9981 1.53114 32.5688 1.15041 33.1972 0.890988C33.8256 0.631563 34.4992 0.498565 35.1793 0.49964C35.8586 0.498663 36.5314 0.631498 37.1591 0.890519C37.7868 1.14954 38.357 1.52965 38.837 2.00901C39.3188 2.48797 39.7008 3.05714 39.9612 3.68383C40.2216 4.31051 40.3553 4.98233 40.3544 5.66069C40.3544 7.08648 39.7754 8.37665 38.837 9.31046L37.6952 10.4509Z" fill="#F57C14"/>
<path d="M123.111 10.4509C121.202 12.3543 121.065 12.8607 122.883 14.6694L123.921 15.7051C124.359 16.1402 124.706 16.6574 124.943 17.2269C125.179 17.7963 125.301 18.4068 125.3 19.0232V35.7874H115.89V19.0239C115.888 18.4075 116.01 17.797 116.246 17.2274C116.482 16.6579 116.829 16.1406 117.267 15.7055L118.307 14.6675C120.122 12.8584 119.986 12.3547 118.078 10.4506L116.934 9.31084C116.453 8.83195 116.071 8.26302 115.811 7.6367C115.551 7.01039 115.417 6.33901 115.418 5.66107C115.418 4.23489 115.998 2.94549 116.934 2.01091C117.414 1.53086 117.985 1.15021 118.613 0.890856C119.242 0.631498 119.915 0.498545 120.595 0.499641C121.274 0.498713 121.947 0.631572 122.575 0.890592C123.202 1.14961 123.772 1.52969 124.252 2.00901C124.734 2.48794 125.116 3.0571 125.377 3.68378C125.637 4.31046 125.771 4.98231 125.77 5.66069C125.77 7.0861 125.191 8.37627 124.253 9.31046L123.111 10.4509ZM113.88 16.9599V35.7874H104.567V28.3112H101.263V35.7874H91.9512V16.9599C91.9512 14.397 94.0359 12.3174 96.6055 12.3174C99.1782 12.3174 101.263 14.397 101.263 16.9599V21.9758H104.567V16.9599C104.567 14.3974 106.653 12.3174 109.225 12.3174C111.795 12.3174 113.88 14.397 113.88 16.9599ZM162.2 22.7862C168.575 24.8738 168.962 28.261 168.962 29.6435C168.962 33.2937 165.117 37.1497 159.446 37.1497C152.846 37.1497 148.667 32.7827 148.982 28.4742H156.521C156.332 29.0155 156.41 31.5446 158.882 31.5446C159.31 31.5446 160.599 31.3254 160.775 30.2149C161.028 28.6409 158.957 27.9924 155.363 26.8178C148.988 24.7321 148.604 21.3418 148.604 19.96C148.604 16.3103 152.446 12.4534 158.116 12.4557C164.717 12.4534 168.895 16.8224 168.581 21.1283H161.042C161.234 20.588 161.153 18.0601 158.681 18.0601C158.252 18.0601 156.966 18.2789 156.788 19.3906C156.537 20.9622 158.608 21.6104 162.2 22.7862ZM143.233 12.314C145.805 12.3159 147.888 14.3952 147.885 16.9603C147.885 19.5235 145.8 21.6005 143.228 21.5986H141.811L141.822 35.7593L132.51 35.765L132.501 21.5986H131.093C128.523 21.6005 126.435 19.5235 126.435 16.9599C126.432 14.3952 128.515 12.3159 131.087 12.3136L143.233 12.314Z" fill="#FFBC00"/>
</svg>
