<svg version="1.2" xmlns="http://www.w3.org/2000/svg" viewBox="0 0 142 34" width="142" height="34">
	<title>settl logo with TM-svg</title>
	<style>
		.s0 { fill: #ed303b } 
		.s1 { fill: #ffffff } 
	</style>
	<path id="Layer" class="s0" d="m14.1 11.6h7.7v7.5q0 0.2-0.1 0.5-0.1 0.3-0.2 0.5-0.1 0.3-0.2 0.5-0.2 0.2-0.4 0.4c-0.5 0.5-1.2 0.8-2 0.8h-7.6v-7.4c0-0.7 0.3-1.4 0.8-2q0.2-0.1 0.4-0.3 0.2-0.1 0.5-0.3 0.3-0.1 0.5-0.1 0.3-0.1 0.6-0.1z"/>
	<path id="Layer" class="s0" d="m11.1 7.5h13.3v-2.6c0-1.1-0.5-2.2-1.3-2.9q-0.3-0.3-0.6-0.5-0.4-0.3-0.8-0.4-0.4-0.2-0.8-0.3-0.4 0-0.8 0h-15.8q-0.9 0-1.7 0.3-0.8 0.3-1.4 0.9-0.6 0.6-0.9 1.3-0.1 0.2-0.1 0.4-0.1 0.2-0.1 0.4-0.1 0.2-0.1 0.4 0 0.2 0 0.4v15.3c0 1.1 0.4 2.1 1.2 2.9q0.3 0.3 0.7 0.5 0.3 0.2 0.7 0.4 0.4 0.1 0.8 0.2 0.4 0.1 0.9 0.1h2.6v-12.8c0-1.1 0.5-2.1 1.2-2.9q0.3-0.2 0.7-0.5 0.3-0.2 0.7-0.3 0.4-0.2 0.8-0.3 0.4 0 0.8 0zm15 1.6v12.9c0 1-0.5 2-1.2 2.8q-0.3 0.3-0.7 0.5-0.3 0.2-0.7 0.4-0.4 0.1-0.8 0.2-0.4 0.1-0.8 0.1h-13.3v2.5c0 1.1 0.5 2.2 1.3 2.9q0.3 0.3 0.6 0.6 0.4 0.2 0.8 0.3 0.4 0.2 0.8 0.3 0.4 0.1 0.8 0.1h15.8q0.3 0 0.5-0.1 0.2 0 0.4 0 0.2-0.1 0.4-0.1 0.2-0.1 0.4-0.2 0.8-0.3 1.4-0.8 0.6-0.6 0.9-1.4 0.3-0.7 0.3-1.6v-15.3q0-0.8-0.3-1.5-0.1-0.2-0.2-0.4-0.1-0.2-0.2-0.3-0.1-0.2-0.3-0.4-0.1-0.1-0.2-0.3-0.2-0.1-0.4-0.2-0.1-0.2-0.3-0.3-0.2-0.1-0.4-0.2-0.1-0.1-0.3-0.2-0.2 0-0.4-0.1-0.2-0.1-0.4-0.1-0.2 0-0.4-0.1-0.2 0-0.5 0z"/>
	<path id="Layer" fill-rule="evenodd" class="s1" d="m56.7 34q-4.1 0-7.5-1.9-4-2.3-5.3-6.5l3.5-1q0.9 3 3.8 4.6 2.4 1.3 5.5 1.3 0.5 0 0.9 0 0.4-0.1 0.8-0.1 0.3-0.1 0.6-0.2 0.4 0 0.7-0.1 0.3-0.1 0.6-0.2 0.3-0.1 0.6-0.2 3.2-1.5 3.5-5 0-0.2 0-0.4 0-0.2 0-0.4 0-0.3-0.1-0.5 0-0.2-0.1-0.4-0.1-0.2-0.2-0.4-0.1-0.2-0.2-0.4-0.1-0.2-0.2-0.4-0.1-0.1-0.3-0.3-1.9-2.2-6.3-2.5-7.2-0.4-10.5-3.2-2.5-2.2-2.5-5.5 0-4.5 3.8-7.3 3.3-2.4 8-2.4 5.6 0 9.4 3.8 1.2 1.2 2.1 2.7 0.3 0.5 0.7 1.4l-3.4 1.2q-0.1-0.1-0.2-0.3-0.1-0.2-0.2-0.3-0.1-0.2-0.2-0.4-0.1-0.1-0.2-0.3-0.1-0.2-0.2-0.4-0.2-0.2-0.4-0.4-0.1-0.2-0.3-0.4-0.2-0.2-0.4-0.4-2.7-2.7-6.7-2.7-1.2 0-2.4 0.3-0.4 0-0.7 0.1-0.4 0.1-0.7 0.2-0.3 0.2-0.7 0.3-0.3 0.1-0.6 0.3-3 1.7-3 5 0 4.6 9.6 5.2 5.8 0.4 8.8 3.7 2.2 2.5 2 5.8-0.4 4.4-3.9 6.8-3.1 2.2-7.4 2.2zm28.2-23.9q5 0 8.6 3.5 3.6 3.5 3.6 8.3v0.8h-20.8q0.2 3.2 2.7 5.4 0.6 0.5 1.3 1 0.7 0.4 1.4 0.7 0.8 0.3 1.6 0.4 0.8 0.1 1.6 0.1 0.6 0 1.2-0.1 0.6 0 1.1-0.2 0.6-0.2 1.2-0.4 0.5-0.2 1-0.5 0.5-0.3 1-0.7 0.4-0.3 0.8-0.7 0.4-0.5 0.7-0.9 0.4-0.5 0.6-1l3.3 1.4q-0.4 0.7-0.8 1.4-0.5 0.7-1.1 1.3-0.5 0.6-1.2 1.1-0.6 0.5-1.3 0.9-0.7 0.5-1.5 0.8-0.8 0.4-1.6 0.6-0.9 0.2-1.7 0.4-0.9 0.1-1.7 0.1-5.1 0-8.6-3.5-3.6-3.5-3.6-8.4 0-4.8 3.6-8.3 3.5-3.5 8.6-3.5zm8.2 9.1q-0.2-0.4-0.4-0.9-0.2-0.4-0.5-0.8-0.3-0.5-0.6-0.8-0.3-0.4-0.7-0.7-0.3-0.4-0.7-0.7-0.4-0.3-0.9-0.5-0.4-0.3-0.9-0.5-0.4-0.2-0.9-0.3-0.5-0.2-1-0.3-0.5-0.1-1-0.1-0.5 0-1 0-0.5 0-1 0.1-0.5 0.1-1 0.2-0.5 0.1-0.9 0.3-0.5 0.2-0.9 0.4-0.5 0.3-0.9 0.6-0.5 0.3-1 0.8-0.5 0.4-0.9 1-0.4 0.5-0.7 1-0.3 0.6-0.5 1.2zm9.1-12.9h3.5v4.1h4.2v3.4h-4.2v12.1q0 0.2 0 0.4 0 0.2 0.1 0.4 0 0.2 0.1 0.4 0 0.2 0.1 0.4 0.3 0.7 0.9 1.3 0.6 0.6 1.4 0.9 0.8 0.3 1.6 0.3v3.5q-0.4 0-0.8-0.1-0.3 0-0.7-0.1-0.4-0.1-0.8-0.2-0.3-0.1-0.7-0.2-0.3-0.2-0.7-0.3-0.3-0.2-0.6-0.4-0.3-0.2-0.6-0.5-0.3-0.2-0.6-0.4-0.3-0.3-0.5-0.6-0.2-0.3-0.5-0.6-0.2-0.3-0.3-0.6-0.2-0.3-0.4-0.7-0.1-0.3-0.2-0.7-0.1-0.3-0.2-0.7-0.1-0.4-0.1-0.7-0.1-0.4 0-0.8zm11.8 0h3.6v4.1h4.2v3.5h-4.2v12.1q0 0.2 0 0.4 0 0.2 0 0.4 0.1 0.2 0.1 0.4 0.1 0.2 0.2 0.3 0.3 0.8 0.9 1.4 0.6 0.5 1.3 0.9 0.2 0 0.4 0.1 0.2 0 0.4 0.1 0.2 0 0.4 0 0.2 0.1 0.5 0.1v3.4q-0.4 0-0.8 0-0.4-0.1-0.8-0.1-0.3-0.1-0.7-0.2-0.4-0.1-0.7-0.3-0.4-0.1-0.7-0.3-0.3-0.2-0.7-0.4-0.3-0.2-0.6-0.4-0.3-0.2-0.5-0.5-0.3-0.3-0.5-0.5-0.3-0.3-0.5-0.6-0.2-0.3-0.4-0.7-0.2-0.3-0.3-0.6-0.2-0.4-0.3-0.7-0.1-0.4-0.1-0.7-0.1-0.4-0.2-0.8 0-0.3 0-0.7zm12.2-6.3h3.6v33.4h-3.6zm12.6 30.7q0 0.5-0.2 1.1-0.3 0.5-0.7 0.9-0.1 0-0.2 0.1-0.1 0.1-0.2 0.2-0.1 0.1-0.2 0.1-0.2 0.1-0.3 0.2-0.4 0.1-0.8 0.2-0.4 0-0.9-0.1-0.4-0.1-0.7-0.3-0.4-0.2-0.7-0.4-0.1-0.1-0.2-0.2-0.1-0.2-0.2-0.3-0.1-0.1-0.1-0.2-0.1-0.1-0.2-0.2 0-0.2 0-0.3-0.1-0.1-0.1-0.3 0-0.1-0.1-0.2 0-0.2 0-0.3c0-0.7 0.3-1.4 0.9-2q0.2-0.2 0.4-0.3 0.2-0.2 0.5-0.3 0.3-0.1 0.5-0.1 0.3-0.1 0.6-0.1c0.8 0 1.5 0.3 2 0.8q0.2 0.2 0.4 0.5 0.1 0.2 0.2 0.4 0.1 0.3 0.2 0.6 0.1 0.2 0.1 0.5zm-3.4-29.5v3.4h-1v-3.4h-1.4v-0.9h3.8v0.9c0 0-1.4 0-1.4 0zm5.6 3.4v-2.8l-1.2 1.9h-0.1l-1.2-1.9v2.8h-1v-4.3h1.1l1.2 1.8 1.1-1.8h1.1v4.3z"/>
</svg>